<svg xmlns="http://www.w3.org/2000/svg" xmlns:xlink="http://www.w3.org/1999/xlink" id="body_12" preserveAspectRatio="xMinYMin meet" viewBox="0 0 792 1056"><defs><clipPath id="1"><path d="M0 792L0 0L0 0L594 0L594 0L594 792L594 792L0 792z" /></clipPath></defs><g transform="matrix(1.333333 0 0 1.333333 0 0)"><g><g clip-path="url(#1)"><g transform="matrix(0.24 0 0 0.24 67.79999 70.01996)"><g transform="matrix(1 0 0 1 0 0)"><image x="0" y="0" xlink:href="img_36.png" width="790" height="340" /></g></g><g transform="matrix(0.12 0 0 0.12 302.76 69.89996)"><g transform="matrix(1 0 0 1 0 0)"><image x="0" y="0" xlink:href="img_37.png" width="2048" height="1465" /></g></g><path transform="matrix(1 0 0 -1 0 792)" d="" stroke="#000000" stroke-width="1" fill="none" /></g></g></g></svg>