<svg xmlns="http://www.w3.org/2000/svg" xmlns:xlink="http://www.w3.org/1999/xlink" id="body_11" preserveAspectRatio="xMinYMin meet" viewBox="0 0 792 1056"><defs><clipPath id="1"><path d="M0 792L0 0L0 0L594 0L594 0L594 792L594 792L0 792z" /></clipPath></defs><g transform="matrix(1.333333 0 0 1.333333 0 0)"><g><g clip-path="url(#1)"><g transform="matrix(0.24 0 0 0.24 44.99999 70.13995)"><g transform="matrix(1 0 0 1 0 0)"><image x="0" y="0" xlink:href="img_32.png" width="1025" height="544" /></g></g><g transform="matrix(0.24 0 0 0.24 44.99999 261.9)"><g transform="matrix(1 0 0 1 0 0)"><image x="0" y="0" xlink:href="img_33.png" width="1025" height="365" /></g></g><g transform="matrix(0.24 0 0 0.24 312 69.41992)"><g transform="matrix(1 0 0 1 0 0)"><image x="0" y="0" xlink:href="img_34.png" width="991" height="547" /></g></g><path transform="matrix(1 0 0 -1 0 792)" d="" stroke="#000000" stroke-width="1" fill="none" /></g></g></g></svg>