<svg xmlns="http://www.w3.org/2000/svg" xmlns:xlink="http://www.w3.org/1999/xlink" id="body_4" preserveAspectRatio="xMinYMin meet" viewBox="0 0 792 1056"><defs><clipPath id="1"><path d="M0 792L0 0L0 0L594 0L594 0L594 792L594 792L0 792z" /></clipPath></defs><g transform="matrix(1.333333 0 0 1.333333 0 0)"><g><g clip-path="url(#1)"><g transform="matrix(0.24 0 0 0.24 39.83999 69.65997)"><g transform="matrix(1 0 0 1 0 0)"><image x="0" y="0" xlink:href="img_08.png" width="1025" height="779" /></g></g><g transform="matrix(0.24 0 0 0.24 61.31999 305.94)"><g transform="matrix(1 0 0 1 0 0)"><image x="0" y="0" xlink:href="img_09.png" width="847" height="366" /></g></g><g transform="matrix(0.24 0 0 0.24 302.76 69.77997)"><g transform="matrix(1 0 0 1 0 0)"><image x="0" y="0" xlink:href="img_10.png" width="1025" height="337" /></g></g><path transform="matrix(1 0 0 -1 0 792)" d="" stroke="#000000" stroke-width="1" fill="none" /></g></g></g></svg>