<svg xmlns="http://www.w3.org/2000/svg" xmlns:xlink="http://www.w3.org/1999/xlink" id="body_13" preserveAspectRatio="xMinYMin meet" viewBox="0 0 792 1056"><defs><clipPath id="1"><path d="M0 792L0 0L0 0L594 0L594 0L594 792L594 792L0 792z" /></clipPath></defs><g transform="matrix(1.333333 0 0 1.333333 0 0)"><g><g clip-path="url(#1)"><g transform="matrix(0.24 0 0 0.24 56.99999 69.29999)"><g transform="matrix(1 0 0 1 0 0)"><image x="0" y="0" xlink:href="img_39.png" width="926" height="693" /></g></g><g transform="matrix(35.52 0 0 -0.48 379.188 388.632)"><g transform="matrix(1 0 0 1 0 0)"><image x="0" y="0" xlink:href="img_24.png" width="1" height="1" /></g></g><g transform="matrix(126.6 0 0 -0.48 379.188 418.512)"><g transform="matrix(1 0 0 1 0 0)"><image x="0" y="0" xlink:href="img_24.png" width="1" height="1" /></g></g><path transform="matrix(1 0 0 -1 0 792)" d="" stroke="#000000" stroke-width="1" fill="none" /></g></g></g></svg>