<svg xmlns="http://www.w3.org/2000/svg" xmlns:xlink="http://www.w3.org/1999/xlink" id="body_5" preserveAspectRatio="xMinYMin meet" viewBox="0 0 792 1056"><defs><clipPath id="1"><path d="M0 792L0 0L0 0L594 0L594 0L594 792L594 792L0 792z" /></clipPath><clipPath id="2"><path d="M521.867 158.739L340.393 158.739L340.393 158.739L340.393 271.431L340.393 271.431L521.867 271.431z" /></clipPath><clipPath id="3"><path d="M450.093 208.703L413.339 208.703L413.339 208.703L413.339 259.183L413.339 259.183L450.093 259.183z" /></clipPath><clipPath id="4"><path d="M525.51 285.106L336.322 285.106L336.322 285.106L336.322 310.831L336.322 310.831L525.51 310.831z" /></clipPath><clipPath id="5"><path d="M525.327 361.62L444.037 361.62L444.037 361.62L444.037 285.291L444.037 285.291L336.48 285.291L336.48 285.291L525.327 285.291L525.327 285.291L525.327 361.62" /></clipPath><clipPath id="6"><path d="M525.51 310.646L430.774 310.646L430.774 310.646L430.774 361.819L430.774 361.819L525.51 361.819z" /></clipPath><clipPath id="7"><path d="M525.327 361.62L444.037 361.62L444.037 361.62L444.037 285.291L444.037 285.291L336.48 285.291L336.48 285.291L525.327 285.291L525.327 285.291L525.327 361.62" /></clipPath><clipPath id="8"><path d="M336.48 285.291L444.037 285.291L444.037 285.291L444.037 336.279L444.037 336.279L336.48 336.279z" /></clipPath><clipPath id="9"><path d="M336.48 336.095L444.037 336.095L444.037 336.095L444.037 361.62L444.037 361.62L336.48 361.62z" /></clipPath><clipPath id="10"><path d="M463.648 72.07001L339.828 72.07001L339.828 72.07001L339.828 128.959L339.828 128.959L463.648 128.959z" /></clipPath><clipPath id="11"><path d="M525.327 157.173L340.017 157.173L340.017 157.173L340.017 72.255L340.017 72.255L525.327 72.25598L525.327 72.25598L525.327 157.173" /></clipPath><clipPath id="12"><path d="M525.511 72.07001L463.459 72.07001L463.459 72.07001L463.459 157.358L463.459 157.358L525.511 157.358z" /></clipPath><clipPath id="13"><path d="M525.327 157.173L340.017 157.173L340.017 157.173L340.017 72.255L340.017 72.255L525.327 72.25598L525.327 72.25598L525.327 157.173" /></clipPath><clipPath id="14"><path d="M463.648 128.775L339.828 128.775L339.828 128.775L339.828 157.358L339.828 157.358L463.648 157.358z" /></clipPath><clipPath id="15"><path d="M525.327 157.173L340.017 157.173L340.017 157.173L340.017 72.255L340.017 72.255L525.327 72.25598L525.327 72.25598L525.327 157.173" /></clipPath></defs><g transform="matrix(1.333333 0 0 1.333333 0 0)"><g><g clip-path="url(#1)"><g transform="matrix(0.24 0 0 0.24 71.04001 69.77997)"><g transform="matrix(1 0 0 1 0 0)"><image x="0" y="0" xlink:href="img_12.png" width="807" height="962" /></g></g><g clip-path="url(#2)"><g transform="matrix(0.191141 0 0 0.1861782 340.308 158.688)"><g transform="matrix(1 0 0 1 0 0)"><image x="0" y="0" xlink:href="img_13.png" width="950" height="606" /></g></g></g><g clip-path="url(#3)"><g transform="matrix(0 0.2336005 -0.2457601 0 450.132 208.608)"><g transform="matrix(1 0 0 1 0 0)"><image x="0" y="0" xlink:href="img_14.png" width="217" height="150" /></g></g></g><g clip-path="url(#4)"><g clip-path="url(#5)"><g transform="matrix(0.2399307 0 0 0.239111 336.228 285.048)"><g transform="matrix(1 0 0 1 0 0)"><image x="0" y="0" xlink:href="img_15.png" width="790" height="108" /></g></g></g></g><g clip-path="url(#6)"><g clip-path="url(#7)"><g transform="matrix(0.2398918 0 0 0.2395514 443.2956 310.608)"><g transform="matrix(1 0 0 1 0 0)"><image x="0" y="0" xlink:href="img_16.png" width="344" height="214" /></g></g></g></g><g clip-path="url(#8)"><g transform="matrix(0.239948 0 0 0.2395514 336.228 285.048)"><g transform="matrix(1 0 0 1 0 0)"><image x="0" y="0" xlink:href="img_17.png" width="451" height="214" /></g></g></g><g clip-path="url(#9)"><g transform="matrix(0.239948 0 0 0.2391112 336.228 336.048)"><g transform="matrix(1 0 0 1 0 0)"><image x="0" y="0" xlink:href="img_18.png" width="451" height="108" /></g></g></g><g clip-path="url(#10)"><g clip-path="url(#11)"><g transform="matrix(0.2399997 0 0 0.2395968 339.708 72.04791)"><g transform="matrix(1 0 0 1 0 0)"><image x="0" y="0" xlink:href="img_19.png" width="517" height="238" /></g></g></g></g><g clip-path="url(#12)"><g clip-path="url(#13)"><g transform="matrix(0.2398752 0 0 0.2397304 463.428 72.04797)"><g transform="matrix(1 0 0 1 0 0)"><image x="0" y="0" xlink:href="img_20.png" width="260" height="356" /></g></g></g></g><g clip-path="url(#14)"><g clip-path="url(#15)"><g transform="matrix(0.2399996 0 0 0.2392001 339.708 128.688)"><g transform="matrix(1 0 0 1 0 0)"><image x="0" y="0" xlink:href="img_21.png" width="517" height="120" /></g></g></g></g><path transform="matrix(1 0 0 -1 0 792)" d="M341.133 721.579L341.085 721.499C 340.583 720.66 339.933 719.573 339.933 717.838C 339.933 716.694 340.262 715.439 341.133 714.079L341.133 714.079L340.616 714.079C 340.294 714.472 339.184 715.951 339.184 717.829C 339.184 718.981 339.522 719.916 340.171 720.94C 340.385 721.284 340.533 721.475 340.616 721.579L340.616 721.579L341.133 721.579" stroke="none" fill="#000000" fill-rule="winding" /><path transform="matrix(1 0 0 -1 0 792)" d="M341.839 718.717C 341.922 719.085 342.12 719.996 343.764 719.996C 345.418 719.996 345.418 719.157 345.418 718.437L345.418 718.437L345.418 717.494C 345.418 716.431 345.418 716.159 345.648 715.759L345.648 715.759L344.891 715.759C 344.776 715.974 344.759 716.166 344.743 716.27C 344.134 715.766 343.632 715.663 343.172 715.663C 342.235 715.663 341.716 716.166 341.716 716.854C 341.716 717.957 342.925 718.094 343.394 718.149C 343.501 718.165 344.283 718.245 344.694 718.389C 344.71 718.837 344.718 719.421 343.658 719.421C 342.752 719.421 342.637 718.973 342.547 718.629L342.547 718.629L341.839 718.717M344.694 717.838C 344.414 717.734 343.879 717.63 343.501 717.574C 343.057 717.51 342.49 717.43 342.49 716.87C 342.49 716.574 342.695 716.214 343.345 716.214C 343.55 716.214 344.036 716.254 344.373 716.606C 344.661 716.91 344.694 717.238 344.694 717.582L344.694 717.582L344.694 717.838z" stroke="none" fill="#000000" fill-rule="winding" /><path transform="matrix(1 0 0 -1 0 792)" d="M346.294 714.079L346.344 714.16C 346.854 714.991 347.496 716.086 347.496 717.822C 347.496 718.965 347.167 720.22 346.294 721.579L346.294 721.579L346.813 721.579C 347.133 721.188 348.244 719.708 348.244 717.829C 348.244 716.678 347.907 715.743 347.257 714.719C 347.044 714.375 346.895 714.183 346.813 714.079L346.813 714.079L346.294 714.079" stroke="none" fill="#000000" fill-rule="winding" /><path transform="matrix(1 0 0 -1 0 792)" d="M341.133 514.594L341.085 514.514C 340.583 513.675 339.933 512.587 339.933 510.852C 339.933 509.709 340.262 508.453 341.133 507.094L341.133 507.094L340.616 507.094C 340.294 507.486 339.184 508.965 339.184 510.844C 339.184 511.995 339.522 512.931 340.171 513.954C 340.385 514.298 340.533 514.49 340.616 514.594L340.616 514.594L341.133 514.594" stroke="none" fill="#000000" fill-rule="winding" /><path transform="matrix(1 0 0 -1 0 792)" d="M345.442 510.204C 345.211 508.806 344.028 508.678 343.666 508.678C 342.259 508.678 341.724 509.733 341.724 510.836C 341.724 512.563 342.819 513.011 343.666 513.011C 344.069 513.011 344.726 512.899 345.105 512.363C 345.286 512.116 345.335 511.876 345.368 511.7L345.368 511.7L344.668 511.596C 344.521 512.195 344.142 512.435 343.699 512.435C 342.572 512.435 342.464 511.34 342.464 510.852C 342.464 510.588 342.464 509.253 343.658 509.253C 344.579 509.253 344.702 510.085 344.726 510.292L344.726 510.292L345.442 510.204" stroke="none" fill="#000000" fill-rule="winding" /><path transform="matrix(1 0 0 -1 0 792)" d="M345.834 507.094L345.883 507.174C 346.393 508.006 347.035 509.101 347.035 510.836C 347.035 511.979 346.706 513.235 345.834 514.594L345.834 514.594L346.352 514.594C 346.672 514.203 347.783 512.723 347.783 510.844C 347.783 509.693 347.446 508.757 346.796 507.734C 346.582 507.39 346.434 507.198 346.352 507.094L346.352 507.094L345.834 507.094" stroke="none" fill="#000000" fill-rule="winding" /><path transform="matrix(1 0 0 -1 0 792)" d="M341.133 633.131L341.085 633.051C 340.583 632.211 339.933 631.124 339.933 629.389C 339.933 628.246 340.262 626.99 341.133 625.631L341.133 625.631L340.616 625.631C 340.294 626.023 339.184 627.502 339.184 629.381C 339.184 630.532 339.522 631.468 340.171 632.491C 340.385 632.835 340.533 633.027 340.616 633.131L340.616 633.131L341.133 633.131" stroke="none" fill="#000000" fill-rule="winding" /><path transform="matrix(1 0 0 -1 0 792)" d="M341.955 627.31L341.955 633.035L341.955 633.035L342.678 633.035L342.678 633.035L342.678 630.988L342.678 630.988L342.695 630.988C 342.793 631.132 343.139 631.548 343.846 631.548C 344.998 631.548 345.656 630.636 345.656 629.445C 345.656 627.694 344.497 627.214 343.814 627.214C 343.632 627.214 343.041 627.238 342.646 627.83L342.646 627.83L342.629 627.83L342.629 627.83L342.629 627.31L342.629 627.31L341.955 627.31M342.835 628.333C 343.057 628.014 343.353 627.789 343.756 627.789C 344.332 627.789 344.916 628.253 344.916 629.389C 344.916 630.3 344.529 630.972 343.781 630.972C 343.033 630.972 342.621 630.252 342.621 629.413C 342.621 628.709 342.736 628.477 342.835 628.333z" stroke="none" fill="#000000" fill-rule="winding" /><path transform="matrix(1 0 0 -1 0 792)" d="M346.269 625.631L346.319 625.711C 346.829 626.542 347.47 627.638 347.47 629.373C 347.47 630.516 347.141 631.771 346.269 633.131L346.269 633.131L346.788 633.131C 347.108 632.739 348.218 631.26 348.218 629.381C 348.218 628.229 347.881 627.294 347.232 626.27C 347.018 625.927 346.87 625.735 346.788 625.631L346.788 625.631L346.269 625.631" stroke="none" fill="#000000" fill-rule="winding" /><path transform="matrix(1 0 0 -1 0 792)" d="" stroke="#000000" stroke-width="1" fill="none" /></g></g></g></svg>